<?xml version="1.0"?><svg version="1.1" id="圖層_1" xmlns="http://www.w3.org/2000/svg" x="0" y="0" viewBox="0 0 100 100" xml:space="preserve"><path d="M63.8 92.2L50.7 80c-.4-.4-1-.4-1.5 0l-13 12.2c-.7.6-1.8.2-1.8-.8V47.8h31.2v43.6c0 1-1.1 1.4-1.8.8z" fill="#c33737"/><g><path d="M63.9 11.1L35.5 60.4c4.2 2.5 9.2 4 14.5 4 15.7 0 28.4-12.7 28.4-28.4 0-10.7-5.8-20-14.5-24.9z" fill="#f47e60"/><path d="M50 7.5c-15.7 0-28.4 12.7-28.4 28.4 0 10.4 5.6 19.5 13.9 24.4l28.4-49.2C59.8 8.8 55.1 7.5 50 7.5z" fill="#f8b26a"/><path d="M58.8 20L40.6 51.5c2.7 1.7 5.9 2.6 9.4 2.6 10 0 18.2-8.1 18.2-18.2 0-6.8-3.8-12.8-9.4-15.9z" fill="#ffdc6c"/><path d="M50 17.7c-10 0-18.2 8.1-18.2 18.2 0 6.6 3.5 12.4 8.8 15.6L58.8 20c-2.6-1.4-5.6-2.3-8.8-2.3z" fill="#f5e6c8"/></g><metadata xmlns:d="https://loading.io/stock/">
<d:name>medal</d:name>
<d:tags>badge,prize,winner,trophy,honor,corsage,gold,medal,web application</d:tags>
<d:license>by</d:license>
<d:slug>koo51c</d:slug>
</metadata></svg>